<mxfile host="app.diagrams.net" modified="2024-01-24T03:18:26.546Z" agent="Mozilla/5.0 (Windows NT 10.0; Win64; x64) AppleWebKit/537.36 (KHTML, like Gecko) Chrome/120.0.0.0 Safari/537.36" etag="DdqvrC0GvfWw9xDT8nmF" version="23.0.0" type="device">
  <diagram name="페이지-1" id="qmmyHufp5ElyVNADfXND">
    <mxGraphModel dx="1434" dy="780" grid="1" gridSize="10" guides="1" tooltips="1" connect="1" arrows="1" fold="1" page="1" pageScale="1" pageWidth="827" pageHeight="1169" math="0" shadow="0">
      <root>
        <mxCell id="0" />
        <mxCell id="1" parent="0" />
        <mxCell id="DzfKtU53nQsjvPbgfAun-1" value="과일" style="rounded=0;whiteSpace=wrap;html=1;" vertex="1" parent="1">
          <mxGeometry x="60" y="60" width="130" height="80" as="geometry" />
        </mxCell>
        <mxCell id="DzfKtU53nQsjvPbgfAun-2" value="가전" style="rounded=0;whiteSpace=wrap;html=1;" vertex="1" parent="1">
          <mxGeometry x="470" y="60" width="130" height="80" as="geometry" />
        </mxCell>
        <mxCell id="DzfKtU53nQsjvPbgfAun-3" value="자동차" style="rounded=0;whiteSpace=wrap;html=1;" vertex="1" parent="1">
          <mxGeometry x="60" y="230" width="130" height="80" as="geometry" />
        </mxCell>
        <mxCell id="DzfKtU53nQsjvPbgfAun-4" value="가구" style="rounded=0;whiteSpace=wrap;html=1;" vertex="1" parent="1">
          <mxGeometry x="470" y="230" width="130" height="80" as="geometry" />
        </mxCell>
        <mxCell id="DzfKtU53nQsjvPbgfAun-5" value="관계X" style="text;html=1;align=center;verticalAlign=middle;resizable=0;points=[];autosize=1;strokeColor=none;fillColor=none;" vertex="1" parent="1">
          <mxGeometry x="300" y="85" width="60" height="30" as="geometry" />
        </mxCell>
        <mxCell id="DzfKtU53nQsjvPbgfAun-6" value="관계X" style="text;html=1;align=center;verticalAlign=middle;resizable=0;points=[];autosize=1;strokeColor=none;fillColor=none;" vertex="1" parent="1">
          <mxGeometry x="300" y="250" width="60" height="30" as="geometry" />
        </mxCell>
        <mxCell id="DzfKtU53nQsjvPbgfAun-7" value="테이블간 관계가 없는 경우" style="text;html=1;align=center;verticalAlign=middle;resizable=0;points=[];autosize=1;strokeColor=none;fillColor=none;" vertex="1" parent="1">
          <mxGeometry x="50" y="10" width="170" height="30" as="geometry" />
        </mxCell>
        <mxCell id="DzfKtU53nQsjvPbgfAun-8" value="테이블간 관계가 1:1" style="text;html=1;align=center;verticalAlign=middle;resizable=0;points=[];autosize=1;strokeColor=none;fillColor=none;" vertex="1" parent="1">
          <mxGeometry x="50" y="410" width="130" height="30" as="geometry" />
        </mxCell>
        <mxCell id="DzfKtU53nQsjvPbgfAun-18" value="" style="edgeStyle=orthogonalEdgeStyle;rounded=0;orthogonalLoop=1;jettySize=auto;html=1;endArrow=none;endFill=0;startArrow=none;startFill=0;" edge="1" parent="1" source="DzfKtU53nQsjvPbgfAun-9" target="DzfKtU53nQsjvPbgfAun-15">
          <mxGeometry relative="1" as="geometry" />
        </mxCell>
        <mxCell id="DzfKtU53nQsjvPbgfAun-9" value="강의" style="rounded=0;whiteSpace=wrap;html=1;" vertex="1" parent="1">
          <mxGeometry x="75" y="1515" width="120" height="60" as="geometry" />
        </mxCell>
        <mxCell id="DzfKtU53nQsjvPbgfAun-20" value="" style="edgeStyle=orthogonalEdgeStyle;rounded=0;orthogonalLoop=1;jettySize=auto;html=1;endArrow=none;endFill=0;" edge="1" parent="1" source="DzfKtU53nQsjvPbgfAun-10" target="DzfKtU53nQsjvPbgfAun-16">
          <mxGeometry relative="1" as="geometry" />
        </mxCell>
        <mxCell id="DzfKtU53nQsjvPbgfAun-10" value="직원" style="rounded=0;whiteSpace=wrap;html=1;" vertex="1" parent="1">
          <mxGeometry x="70" y="955" width="120" height="60" as="geometry" />
        </mxCell>
        <mxCell id="DzfKtU53nQsjvPbgfAun-22" value="" style="edgeStyle=orthogonalEdgeStyle;rounded=0;orthogonalLoop=1;jettySize=auto;html=1;endArrow=none;endFill=0;" edge="1" parent="1" source="DzfKtU53nQsjvPbgfAun-11" target="DzfKtU53nQsjvPbgfAun-17">
          <mxGeometry relative="1" as="geometry" />
        </mxCell>
        <mxCell id="DzfKtU53nQsjvPbgfAun-11" value="과외선생님" style="rounded=0;whiteSpace=wrap;html=1;" vertex="1" parent="1">
          <mxGeometry x="70" y="1985" width="120" height="60" as="geometry" />
        </mxCell>
        <mxCell id="DzfKtU53nQsjvPbgfAun-12" value="학생" style="rounded=0;whiteSpace=wrap;html=1;" vertex="1" parent="1">
          <mxGeometry x="815" y="1515" width="120" height="60" as="geometry" />
        </mxCell>
        <mxCell id="DzfKtU53nQsjvPbgfAun-13" value="부서" style="rounded=0;whiteSpace=wrap;html=1;" vertex="1" parent="1">
          <mxGeometry x="520" y="955" width="120" height="60" as="geometry" />
        </mxCell>
        <mxCell id="DzfKtU53nQsjvPbgfAun-14" value="제자" style="rounded=0;whiteSpace=wrap;html=1;" vertex="1" parent="1">
          <mxGeometry x="520" y="1985" width="120" height="60" as="geometry" />
        </mxCell>
        <mxCell id="DzfKtU53nQsjvPbgfAun-19" value="" style="edgeStyle=orthogonalEdgeStyle;rounded=0;orthogonalLoop=1;jettySize=auto;html=1;endArrow=none;endFill=0;" edge="1" parent="1" source="DzfKtU53nQsjvPbgfAun-15" target="DzfKtU53nQsjvPbgfAun-12">
          <mxGeometry relative="1" as="geometry" />
        </mxCell>
        <mxCell id="DzfKtU53nQsjvPbgfAun-15" value="수강신청" style="rhombus;whiteSpace=wrap;html=1;" vertex="1" parent="1">
          <mxGeometry x="421" y="1510" width="124" height="70" as="geometry" />
        </mxCell>
        <mxCell id="DzfKtU53nQsjvPbgfAun-21" value="" style="edgeStyle=orthogonalEdgeStyle;rounded=0;orthogonalLoop=1;jettySize=auto;html=1;endArrow=none;endFill=0;" edge="1" parent="1" source="DzfKtU53nQsjvPbgfAun-16" target="DzfKtU53nQsjvPbgfAun-13">
          <mxGeometry relative="1" as="geometry" />
        </mxCell>
        <mxCell id="DzfKtU53nQsjvPbgfAun-16" value="소속" style="rhombus;whiteSpace=wrap;html=1;" vertex="1" parent="1">
          <mxGeometry x="295" y="950" width="124" height="70" as="geometry" />
        </mxCell>
        <mxCell id="DzfKtU53nQsjvPbgfAun-23" value="" style="edgeStyle=orthogonalEdgeStyle;rounded=0;orthogonalLoop=1;jettySize=auto;html=1;endArrow=none;endFill=0;" edge="1" parent="1" source="DzfKtU53nQsjvPbgfAun-17" target="DzfKtU53nQsjvPbgfAun-14">
          <mxGeometry relative="1" as="geometry" />
        </mxCell>
        <mxCell id="DzfKtU53nQsjvPbgfAun-17" value="교육" style="rhombus;whiteSpace=wrap;html=1;" vertex="1" parent="1">
          <mxGeometry x="295" y="1980" width="124" height="70" as="geometry" />
        </mxCell>
        <mxCell id="DzfKtU53nQsjvPbgfAun-24" value="1" style="text;html=1;align=center;verticalAlign=middle;resizable=0;points=[];autosize=1;strokeColor=none;fillColor=none;" vertex="1" parent="1">
          <mxGeometry x="195" y="1515" width="30" height="30" as="geometry" />
        </mxCell>
        <mxCell id="DzfKtU53nQsjvPbgfAun-25" value="N" style="text;html=1;align=center;verticalAlign=middle;resizable=0;points=[];autosize=1;strokeColor=none;fillColor=none;" vertex="1" parent="1">
          <mxGeometry x="397" y="1515" width="30" height="30" as="geometry" />
        </mxCell>
        <mxCell id="DzfKtU53nQsjvPbgfAun-26" value="M" style="text;html=1;align=center;verticalAlign=middle;resizable=0;points=[];autosize=1;strokeColor=none;fillColor=none;" vertex="1" parent="1">
          <mxGeometry x="545" y="1515" width="30" height="30" as="geometry" />
        </mxCell>
        <mxCell id="DzfKtU53nQsjvPbgfAun-27" value="1" style="text;html=1;align=center;verticalAlign=middle;resizable=0;points=[];autosize=1;strokeColor=none;fillColor=none;" vertex="1" parent="1">
          <mxGeometry x="785" y="1515" width="30" height="30" as="geometry" />
        </mxCell>
        <mxCell id="DzfKtU53nQsjvPbgfAun-28" value="1" style="text;html=1;align=center;verticalAlign=middle;resizable=0;points=[];autosize=1;strokeColor=none;fillColor=none;" vertex="1" parent="1">
          <mxGeometry x="190" y="955" width="30" height="30" as="geometry" />
        </mxCell>
        <mxCell id="DzfKtU53nQsjvPbgfAun-29" value="N&amp;nbsp;" style="text;html=1;align=center;verticalAlign=middle;resizable=0;points=[];autosize=1;strokeColor=none;fillColor=none;" vertex="1" parent="1">
          <mxGeometry x="400" y="955" width="40" height="30" as="geometry" />
        </mxCell>
        <mxCell id="DzfKtU53nQsjvPbgfAun-30" value="1" style="text;html=1;align=center;verticalAlign=middle;resizable=0;points=[];autosize=1;strokeColor=none;fillColor=none;" vertex="1" parent="1">
          <mxGeometry x="280" y="955" width="30" height="30" as="geometry" />
        </mxCell>
        <mxCell id="DzfKtU53nQsjvPbgfAun-31" value="1" style="text;html=1;align=center;verticalAlign=middle;resizable=0;points=[];autosize=1;strokeColor=none;fillColor=none;" vertex="1" parent="1">
          <mxGeometry x="490" y="955" width="30" height="30" as="geometry" />
        </mxCell>
        <mxCell id="DzfKtU53nQsjvPbgfAun-32" value="1" style="text;html=1;align=center;verticalAlign=middle;resizable=0;points=[];autosize=1;strokeColor=none;fillColor=none;" vertex="1" parent="1">
          <mxGeometry x="190" y="1985" width="30" height="30" as="geometry" />
        </mxCell>
        <mxCell id="DzfKtU53nQsjvPbgfAun-33" value="N" style="text;html=1;align=center;verticalAlign=middle;resizable=0;points=[];autosize=1;strokeColor=none;fillColor=none;" vertex="1" parent="1">
          <mxGeometry x="280" y="1985" width="30" height="30" as="geometry" />
        </mxCell>
        <mxCell id="DzfKtU53nQsjvPbgfAun-34" value="1" style="text;html=1;align=center;verticalAlign=middle;resizable=0;points=[];autosize=1;strokeColor=none;fillColor=none;" vertex="1" parent="1">
          <mxGeometry x="490" y="1985" width="30" height="30" as="geometry" />
        </mxCell>
        <mxCell id="DzfKtU53nQsjvPbgfAun-35" value="M" style="text;html=1;align=center;verticalAlign=middle;resizable=0;points=[];autosize=1;strokeColor=none;fillColor=none;" vertex="1" parent="1">
          <mxGeometry x="409" y="1985" width="30" height="30" as="geometry" />
        </mxCell>
        <mxCell id="DzfKtU53nQsjvPbgfAun-36" value="" style="edgeStyle=orthogonalEdgeStyle;rounded=0;orthogonalLoop=1;jettySize=auto;html=1;endArrow=none;endFill=0;" edge="1" parent="1" source="DzfKtU53nQsjvPbgfAun-37" target="DzfKtU53nQsjvPbgfAun-40">
          <mxGeometry relative="1" as="geometry" />
        </mxCell>
        <mxCell id="DzfKtU53nQsjvPbgfAun-37" value="남자" style="rounded=0;whiteSpace=wrap;html=1;" vertex="1" parent="1">
          <mxGeometry x="60" y="475" width="120" height="60" as="geometry" />
        </mxCell>
        <mxCell id="DzfKtU53nQsjvPbgfAun-38" value="여자" style="rounded=0;whiteSpace=wrap;html=1;" vertex="1" parent="1">
          <mxGeometry x="510" y="475" width="120" height="60" as="geometry" />
        </mxCell>
        <mxCell id="DzfKtU53nQsjvPbgfAun-39" value="" style="edgeStyle=orthogonalEdgeStyle;rounded=0;orthogonalLoop=1;jettySize=auto;html=1;endArrow=none;endFill=0;" edge="1" parent="1" source="DzfKtU53nQsjvPbgfAun-40" target="DzfKtU53nQsjvPbgfAun-38">
          <mxGeometry relative="1" as="geometry" />
        </mxCell>
        <mxCell id="DzfKtU53nQsjvPbgfAun-40" value="결혼" style="rhombus;whiteSpace=wrap;html=1;" vertex="1" parent="1">
          <mxGeometry x="285" y="470" width="124" height="70" as="geometry" />
        </mxCell>
        <mxCell id="DzfKtU53nQsjvPbgfAun-41" value="1" style="text;html=1;align=center;verticalAlign=middle;resizable=0;points=[];autosize=1;strokeColor=none;fillColor=none;" vertex="1" parent="1">
          <mxGeometry x="180" y="475" width="30" height="30" as="geometry" />
        </mxCell>
        <mxCell id="DzfKtU53nQsjvPbgfAun-42" value="1" style="text;html=1;align=center;verticalAlign=middle;resizable=0;points=[];autosize=1;strokeColor=none;fillColor=none;" vertex="1" parent="1">
          <mxGeometry x="270" y="475" width="30" height="30" as="geometry" />
        </mxCell>
        <mxCell id="DzfKtU53nQsjvPbgfAun-43" value="1" style="text;html=1;align=center;verticalAlign=middle;resizable=0;points=[];autosize=1;strokeColor=none;fillColor=none;" vertex="1" parent="1">
          <mxGeometry x="400" y="475" width="30" height="30" as="geometry" />
        </mxCell>
        <mxCell id="DzfKtU53nQsjvPbgfAun-44" value="1" style="text;html=1;align=center;verticalAlign=middle;resizable=0;points=[];autosize=1;strokeColor=none;fillColor=none;" vertex="1" parent="1">
          <mxGeometry x="480" y="475" width="30" height="30" as="geometry" />
        </mxCell>
        <mxCell id="DzfKtU53nQsjvPbgfAun-45" value="L_ID(PK)" style="ellipse;whiteSpace=wrap;html=1;fontStyle=4" vertex="1" parent="1">
          <mxGeometry x="12.629999999999999" y="1610" width="65" height="35" as="geometry" />
        </mxCell>
        <mxCell id="DzfKtU53nQsjvPbgfAun-47" value="강의명" style="ellipse;whiteSpace=wrap;html=1;" vertex="1" parent="1">
          <mxGeometry x="77.63" y="1610" width="65" height="35" as="geometry" />
        </mxCell>
        <mxCell id="DzfKtU53nQsjvPbgfAun-48" value="강의장명" style="ellipse;whiteSpace=wrap;html=1;" vertex="1" parent="1">
          <mxGeometry x="142.63" y="1610" width="65" height="35" as="geometry" />
        </mxCell>
        <mxCell id="DzfKtU53nQsjvPbgfAun-49" value="S_ID(PK)" style="ellipse;whiteSpace=wrap;html=1;fontStyle=4" vertex="1" parent="1">
          <mxGeometry x="732.38" y="1618" width="65" height="35" as="geometry" />
        </mxCell>
        <mxCell id="DzfKtU53nQsjvPbgfAun-50" value="이름" style="ellipse;whiteSpace=wrap;html=1;" vertex="1" parent="1">
          <mxGeometry x="802.38" y="1618" width="65" height="35" as="geometry" />
        </mxCell>
        <mxCell id="DzfKtU53nQsjvPbgfAun-51" value="나이" style="ellipse;whiteSpace=wrap;html=1;" vertex="1" parent="1">
          <mxGeometry x="872.38" y="1618" width="65" height="35" as="geometry" />
        </mxCell>
        <mxCell id="DzfKtU53nQsjvPbgfAun-94" value="" style="edgeStyle=orthogonalEdgeStyle;rounded=0;orthogonalLoop=1;jettySize=auto;html=1;endArrow=ERmany;endFill=0;startArrow=ERone;startFill=0;" edge="1" parent="1" source="DzfKtU53nQsjvPbgfAun-52" target="DzfKtU53nQsjvPbgfAun-84">
          <mxGeometry relative="1" as="geometry" />
        </mxCell>
        <mxCell id="DzfKtU53nQsjvPbgfAun-52" value="강의" style="shape=table;startSize=30;container=1;collapsible=1;childLayout=tableLayout;fixedRows=1;rowLines=0;fontStyle=1;align=center;resizeLast=1;html=1;" vertex="1" parent="1">
          <mxGeometry x="127" y="1700" width="180" height="180" as="geometry" />
        </mxCell>
        <mxCell id="DzfKtU53nQsjvPbgfAun-53" value="" style="shape=tableRow;horizontal=0;startSize=0;swimlaneHead=0;swimlaneBody=0;fillColor=none;collapsible=0;dropTarget=0;points=[[0,0.5],[1,0.5]];portConstraint=eastwest;top=0;left=0;right=0;bottom=1;" vertex="1" parent="DzfKtU53nQsjvPbgfAun-52">
          <mxGeometry y="30" width="180" height="30" as="geometry" />
        </mxCell>
        <mxCell id="DzfKtU53nQsjvPbgfAun-54" value="PK" style="shape=partialRectangle;connectable=0;fillColor=none;top=0;left=0;bottom=0;right=0;fontStyle=1;overflow=hidden;whiteSpace=wrap;html=1;" vertex="1" parent="DzfKtU53nQsjvPbgfAun-53">
          <mxGeometry width="30" height="30" as="geometry">
            <mxRectangle width="30" height="30" as="alternateBounds" />
          </mxGeometry>
        </mxCell>
        <mxCell id="DzfKtU53nQsjvPbgfAun-55" value="L_ID" style="shape=partialRectangle;connectable=0;fillColor=none;top=0;left=0;bottom=0;right=0;align=left;spacingLeft=6;fontStyle=5;overflow=hidden;whiteSpace=wrap;html=1;" vertex="1" parent="DzfKtU53nQsjvPbgfAun-53">
          <mxGeometry x="30" width="150" height="30" as="geometry">
            <mxRectangle width="150" height="30" as="alternateBounds" />
          </mxGeometry>
        </mxCell>
        <mxCell id="DzfKtU53nQsjvPbgfAun-56" value="" style="shape=tableRow;horizontal=0;startSize=0;swimlaneHead=0;swimlaneBody=0;fillColor=none;collapsible=0;dropTarget=0;points=[[0,0.5],[1,0.5]];portConstraint=eastwest;top=0;left=0;right=0;bottom=0;" vertex="1" parent="DzfKtU53nQsjvPbgfAun-52">
          <mxGeometry y="60" width="180" height="30" as="geometry" />
        </mxCell>
        <mxCell id="DzfKtU53nQsjvPbgfAun-57" value="" style="shape=partialRectangle;connectable=0;fillColor=none;top=0;left=0;bottom=0;right=0;editable=1;overflow=hidden;whiteSpace=wrap;html=1;" vertex="1" parent="DzfKtU53nQsjvPbgfAun-56">
          <mxGeometry width="30" height="30" as="geometry">
            <mxRectangle width="30" height="30" as="alternateBounds" />
          </mxGeometry>
        </mxCell>
        <mxCell id="DzfKtU53nQsjvPbgfAun-58" value="강의명" style="shape=partialRectangle;connectable=0;fillColor=none;top=0;left=0;bottom=0;right=0;align=left;spacingLeft=6;overflow=hidden;whiteSpace=wrap;html=1;" vertex="1" parent="DzfKtU53nQsjvPbgfAun-56">
          <mxGeometry x="30" width="150" height="30" as="geometry">
            <mxRectangle width="150" height="30" as="alternateBounds" />
          </mxGeometry>
        </mxCell>
        <mxCell id="DzfKtU53nQsjvPbgfAun-59" value="" style="shape=tableRow;horizontal=0;startSize=0;swimlaneHead=0;swimlaneBody=0;fillColor=none;collapsible=0;dropTarget=0;points=[[0,0.5],[1,0.5]];portConstraint=eastwest;top=0;left=0;right=0;bottom=0;" vertex="1" parent="DzfKtU53nQsjvPbgfAun-52">
          <mxGeometry y="90" width="180" height="30" as="geometry" />
        </mxCell>
        <mxCell id="DzfKtU53nQsjvPbgfAun-60" value="" style="shape=partialRectangle;connectable=0;fillColor=none;top=0;left=0;bottom=0;right=0;editable=1;overflow=hidden;whiteSpace=wrap;html=1;" vertex="1" parent="DzfKtU53nQsjvPbgfAun-59">
          <mxGeometry width="30" height="30" as="geometry">
            <mxRectangle width="30" height="30" as="alternateBounds" />
          </mxGeometry>
        </mxCell>
        <mxCell id="DzfKtU53nQsjvPbgfAun-61" value="강의장명" style="shape=partialRectangle;connectable=0;fillColor=none;top=0;left=0;bottom=0;right=0;align=left;spacingLeft=6;overflow=hidden;whiteSpace=wrap;html=1;" vertex="1" parent="DzfKtU53nQsjvPbgfAun-59">
          <mxGeometry x="30" width="150" height="30" as="geometry">
            <mxRectangle width="150" height="30" as="alternateBounds" />
          </mxGeometry>
        </mxCell>
        <mxCell id="DzfKtU53nQsjvPbgfAun-257" value="" style="shape=tableRow;horizontal=0;startSize=0;swimlaneHead=0;swimlaneBody=0;fillColor=none;collapsible=0;dropTarget=0;points=[[0,0.5],[1,0.5]];portConstraint=eastwest;top=0;left=0;right=0;bottom=0;" vertex="1" parent="DzfKtU53nQsjvPbgfAun-52">
          <mxGeometry y="120" width="180" height="30" as="geometry" />
        </mxCell>
        <mxCell id="DzfKtU53nQsjvPbgfAun-258" value="" style="shape=partialRectangle;connectable=0;fillColor=none;top=0;left=0;bottom=0;right=0;editable=1;overflow=hidden;whiteSpace=wrap;html=1;" vertex="1" parent="DzfKtU53nQsjvPbgfAun-257">
          <mxGeometry width="30" height="30" as="geometry">
            <mxRectangle width="30" height="30" as="alternateBounds" />
          </mxGeometry>
        </mxCell>
        <mxCell id="DzfKtU53nQsjvPbgfAun-259" value="강사명" style="shape=partialRectangle;connectable=0;fillColor=none;top=0;left=0;bottom=0;right=0;align=left;spacingLeft=6;overflow=hidden;whiteSpace=wrap;html=1;" vertex="1" parent="DzfKtU53nQsjvPbgfAun-257">
          <mxGeometry x="30" width="150" height="30" as="geometry">
            <mxRectangle width="150" height="30" as="alternateBounds" />
          </mxGeometry>
        </mxCell>
        <mxCell id="DzfKtU53nQsjvPbgfAun-260" value="" style="shape=tableRow;horizontal=0;startSize=0;swimlaneHead=0;swimlaneBody=0;fillColor=none;collapsible=0;dropTarget=0;points=[[0,0.5],[1,0.5]];portConstraint=eastwest;top=0;left=0;right=0;bottom=0;" vertex="1" parent="DzfKtU53nQsjvPbgfAun-52">
          <mxGeometry y="150" width="180" height="30" as="geometry" />
        </mxCell>
        <mxCell id="DzfKtU53nQsjvPbgfAun-261" value="" style="shape=partialRectangle;connectable=0;fillColor=none;top=0;left=0;bottom=0;right=0;editable=1;overflow=hidden;whiteSpace=wrap;html=1;" vertex="1" parent="DzfKtU53nQsjvPbgfAun-260">
          <mxGeometry width="30" height="30" as="geometry">
            <mxRectangle width="30" height="30" as="alternateBounds" />
          </mxGeometry>
        </mxCell>
        <mxCell id="DzfKtU53nQsjvPbgfAun-262" value="강의시간" style="shape=partialRectangle;connectable=0;fillColor=none;top=0;left=0;bottom=0;right=0;align=left;spacingLeft=6;overflow=hidden;whiteSpace=wrap;html=1;" vertex="1" parent="DzfKtU53nQsjvPbgfAun-260">
          <mxGeometry x="30" width="150" height="30" as="geometry">
            <mxRectangle width="150" height="30" as="alternateBounds" />
          </mxGeometry>
        </mxCell>
        <mxCell id="DzfKtU53nQsjvPbgfAun-256" value="" style="edgeStyle=orthogonalEdgeStyle;rounded=0;orthogonalLoop=1;jettySize=auto;html=1;endArrow=ERone;endFill=0;startArrow=ERoneToMany;startFill=0;" edge="1" parent="1" source="DzfKtU53nQsjvPbgfAun-84" target="DzfKtU53nQsjvPbgfAun-246">
          <mxGeometry relative="1" as="geometry" />
        </mxCell>
        <mxCell id="DzfKtU53nQsjvPbgfAun-84" value="수강신청" style="shape=table;startSize=30;container=1;collapsible=1;childLayout=tableLayout;fixedRows=1;rowLines=0;fontStyle=1;align=center;resizeLast=1;html=1;" vertex="1" parent="1">
          <mxGeometry x="393.63" y="1715" width="180" height="150" as="geometry" />
        </mxCell>
        <mxCell id="DzfKtU53nQsjvPbgfAun-85" value="" style="shape=tableRow;horizontal=0;startSize=0;swimlaneHead=0;swimlaneBody=0;fillColor=none;collapsible=0;dropTarget=0;points=[[0,0.5],[1,0.5]];portConstraint=eastwest;top=0;left=0;right=0;bottom=1;" vertex="1" parent="DzfKtU53nQsjvPbgfAun-84">
          <mxGeometry y="30" width="180" height="30" as="geometry" />
        </mxCell>
        <mxCell id="DzfKtU53nQsjvPbgfAun-86" value="PK" style="shape=partialRectangle;connectable=0;fillColor=none;top=0;left=0;bottom=0;right=0;fontStyle=1;overflow=hidden;whiteSpace=wrap;html=1;" vertex="1" parent="DzfKtU53nQsjvPbgfAun-85">
          <mxGeometry width="30" height="30" as="geometry">
            <mxRectangle width="30" height="30" as="alternateBounds" />
          </mxGeometry>
        </mxCell>
        <mxCell id="DzfKtU53nQsjvPbgfAun-87" value="R_ID" style="shape=partialRectangle;connectable=0;fillColor=none;top=0;left=0;bottom=0;right=0;align=left;spacingLeft=6;fontStyle=5;overflow=hidden;whiteSpace=wrap;html=1;" vertex="1" parent="DzfKtU53nQsjvPbgfAun-85">
          <mxGeometry x="30" width="150" height="30" as="geometry">
            <mxRectangle width="150" height="30" as="alternateBounds" />
          </mxGeometry>
        </mxCell>
        <mxCell id="DzfKtU53nQsjvPbgfAun-267" value="" style="shape=tableRow;horizontal=0;startSize=0;swimlaneHead=0;swimlaneBody=0;fillColor=none;collapsible=0;dropTarget=0;points=[[0,0.5],[1,0.5]];portConstraint=eastwest;top=0;left=0;right=0;bottom=1;" vertex="1" parent="DzfKtU53nQsjvPbgfAun-84">
          <mxGeometry y="60" width="180" height="30" as="geometry" />
        </mxCell>
        <mxCell id="DzfKtU53nQsjvPbgfAun-268" value="FK" style="shape=partialRectangle;connectable=0;fillColor=none;top=0;left=0;bottom=0;right=0;fontStyle=1;overflow=hidden;whiteSpace=wrap;html=1;" vertex="1" parent="DzfKtU53nQsjvPbgfAun-267">
          <mxGeometry width="30" height="30" as="geometry">
            <mxRectangle width="30" height="30" as="alternateBounds" />
          </mxGeometry>
        </mxCell>
        <mxCell id="DzfKtU53nQsjvPbgfAun-269" value="L_ID" style="shape=partialRectangle;connectable=0;fillColor=none;top=0;left=0;bottom=0;right=0;align=left;spacingLeft=6;fontStyle=1;overflow=hidden;whiteSpace=wrap;html=1;" vertex="1" parent="DzfKtU53nQsjvPbgfAun-267">
          <mxGeometry x="30" width="150" height="30" as="geometry">
            <mxRectangle width="150" height="30" as="alternateBounds" />
          </mxGeometry>
        </mxCell>
        <mxCell id="DzfKtU53nQsjvPbgfAun-270" value="" style="shape=tableRow;horizontal=0;startSize=0;swimlaneHead=0;swimlaneBody=0;fillColor=none;collapsible=0;dropTarget=0;points=[[0,0.5],[1,0.5]];portConstraint=eastwest;top=0;left=0;right=0;bottom=1;" vertex="1" parent="DzfKtU53nQsjvPbgfAun-84">
          <mxGeometry y="90" width="180" height="30" as="geometry" />
        </mxCell>
        <mxCell id="DzfKtU53nQsjvPbgfAun-271" value="FK" style="shape=partialRectangle;connectable=0;fillColor=none;top=0;left=0;bottom=0;right=0;fontStyle=1;overflow=hidden;whiteSpace=wrap;html=1;" vertex="1" parent="DzfKtU53nQsjvPbgfAun-270">
          <mxGeometry width="30" height="30" as="geometry">
            <mxRectangle width="30" height="30" as="alternateBounds" />
          </mxGeometry>
        </mxCell>
        <mxCell id="DzfKtU53nQsjvPbgfAun-272" value="S_ID" style="shape=partialRectangle;connectable=0;fillColor=none;top=0;left=0;bottom=0;right=0;align=left;spacingLeft=6;fontStyle=1;overflow=hidden;whiteSpace=wrap;html=1;" vertex="1" parent="DzfKtU53nQsjvPbgfAun-270">
          <mxGeometry x="30" width="150" height="30" as="geometry">
            <mxRectangle width="150" height="30" as="alternateBounds" />
          </mxGeometry>
        </mxCell>
        <mxCell id="DzfKtU53nQsjvPbgfAun-88" value="" style="shape=tableRow;horizontal=0;startSize=0;swimlaneHead=0;swimlaneBody=0;fillColor=none;collapsible=0;dropTarget=0;points=[[0,0.5],[1,0.5]];portConstraint=eastwest;top=0;left=0;right=0;bottom=0;" vertex="1" parent="DzfKtU53nQsjvPbgfAun-84">
          <mxGeometry y="120" width="180" height="30" as="geometry" />
        </mxCell>
        <mxCell id="DzfKtU53nQsjvPbgfAun-89" value="" style="shape=partialRectangle;connectable=0;fillColor=none;top=0;left=0;bottom=0;right=0;editable=1;overflow=hidden;whiteSpace=wrap;html=1;" vertex="1" parent="DzfKtU53nQsjvPbgfAun-88">
          <mxGeometry width="30" height="30" as="geometry">
            <mxRectangle width="30" height="30" as="alternateBounds" />
          </mxGeometry>
        </mxCell>
        <mxCell id="DzfKtU53nQsjvPbgfAun-90" value="R_date" style="shape=partialRectangle;connectable=0;fillColor=none;top=0;left=0;bottom=0;right=0;align=left;spacingLeft=6;overflow=hidden;whiteSpace=wrap;html=1;" vertex="1" parent="DzfKtU53nQsjvPbgfAun-88">
          <mxGeometry x="30" width="150" height="30" as="geometry">
            <mxRectangle width="150" height="30" as="alternateBounds" />
          </mxGeometry>
        </mxCell>
        <mxCell id="DzfKtU53nQsjvPbgfAun-95" value="" style="edgeStyle=orthogonalEdgeStyle;rounded=0;orthogonalLoop=1;jettySize=auto;html=1;endArrow=none;endFill=0;" edge="1" parent="1" source="DzfKtU53nQsjvPbgfAun-96" target="DzfKtU53nQsjvPbgfAun-99">
          <mxGeometry relative="1" as="geometry" />
        </mxCell>
        <mxCell id="DzfKtU53nQsjvPbgfAun-96" value="아빠" style="rounded=0;whiteSpace=wrap;html=1;" vertex="1" parent="1">
          <mxGeometry x="60" y="585" width="120" height="60" as="geometry" />
        </mxCell>
        <mxCell id="DzfKtU53nQsjvPbgfAun-97" value="엄마" style="rounded=0;whiteSpace=wrap;html=1;" vertex="1" parent="1">
          <mxGeometry x="510" y="585" width="120" height="60" as="geometry" />
        </mxCell>
        <mxCell id="DzfKtU53nQsjvPbgfAun-98" value="" style="edgeStyle=orthogonalEdgeStyle;rounded=0;orthogonalLoop=1;jettySize=auto;html=1;endArrow=none;endFill=0;" edge="1" parent="1" source="DzfKtU53nQsjvPbgfAun-99" target="DzfKtU53nQsjvPbgfAun-97">
          <mxGeometry relative="1" as="geometry" />
        </mxCell>
        <mxCell id="DzfKtU53nQsjvPbgfAun-99" value="부부" style="rhombus;whiteSpace=wrap;html=1;" vertex="1" parent="1">
          <mxGeometry x="285" y="580" width="124" height="70" as="geometry" />
        </mxCell>
        <mxCell id="DzfKtU53nQsjvPbgfAun-100" value="1" style="text;html=1;align=center;verticalAlign=middle;resizable=0;points=[];autosize=1;strokeColor=none;fillColor=none;" vertex="1" parent="1">
          <mxGeometry x="180" y="585" width="30" height="30" as="geometry" />
        </mxCell>
        <mxCell id="DzfKtU53nQsjvPbgfAun-101" value="1" style="text;html=1;align=center;verticalAlign=middle;resizable=0;points=[];autosize=1;strokeColor=none;fillColor=none;" vertex="1" parent="1">
          <mxGeometry x="270" y="585" width="30" height="30" as="geometry" />
        </mxCell>
        <mxCell id="DzfKtU53nQsjvPbgfAun-102" value="1" style="text;html=1;align=center;verticalAlign=middle;resizable=0;points=[];autosize=1;strokeColor=none;fillColor=none;" vertex="1" parent="1">
          <mxGeometry x="400" y="585" width="30" height="30" as="geometry" />
        </mxCell>
        <mxCell id="DzfKtU53nQsjvPbgfAun-103" value="1" style="text;html=1;align=center;verticalAlign=middle;resizable=0;points=[];autosize=1;strokeColor=none;fillColor=none;" vertex="1" parent="1">
          <mxGeometry x="480" y="585" width="30" height="30" as="geometry" />
        </mxCell>
        <mxCell id="DzfKtU53nQsjvPbgfAun-104" value="" style="edgeStyle=orthogonalEdgeStyle;rounded=0;orthogonalLoop=1;jettySize=auto;html=1;endArrow=none;endFill=0;" edge="1" parent="1" source="DzfKtU53nQsjvPbgfAun-105" target="DzfKtU53nQsjvPbgfAun-108">
          <mxGeometry relative="1" as="geometry" />
        </mxCell>
        <mxCell id="DzfKtU53nQsjvPbgfAun-105" value="사람" style="rounded=0;whiteSpace=wrap;html=1;" vertex="1" parent="1">
          <mxGeometry x="60" y="725" width="120" height="60" as="geometry" />
        </mxCell>
        <mxCell id="DzfKtU53nQsjvPbgfAun-106" value="지문" style="rounded=0;whiteSpace=wrap;html=1;" vertex="1" parent="1">
          <mxGeometry x="510" y="725" width="120" height="60" as="geometry" />
        </mxCell>
        <mxCell id="DzfKtU53nQsjvPbgfAun-107" value="" style="edgeStyle=orthogonalEdgeStyle;rounded=0;orthogonalLoop=1;jettySize=auto;html=1;endArrow=none;endFill=0;" edge="1" parent="1" source="DzfKtU53nQsjvPbgfAun-108" target="DzfKtU53nQsjvPbgfAun-106">
          <mxGeometry relative="1" as="geometry" />
        </mxCell>
        <mxCell id="DzfKtU53nQsjvPbgfAun-108" value="소유" style="rhombus;whiteSpace=wrap;html=1;" vertex="1" parent="1">
          <mxGeometry x="285" y="720" width="124" height="70" as="geometry" />
        </mxCell>
        <mxCell id="DzfKtU53nQsjvPbgfAun-109" value="1" style="text;html=1;align=center;verticalAlign=middle;resizable=0;points=[];autosize=1;strokeColor=none;fillColor=none;" vertex="1" parent="1">
          <mxGeometry x="180" y="725" width="30" height="30" as="geometry" />
        </mxCell>
        <mxCell id="DzfKtU53nQsjvPbgfAun-110" value="1" style="text;html=1;align=center;verticalAlign=middle;resizable=0;points=[];autosize=1;strokeColor=none;fillColor=none;" vertex="1" parent="1">
          <mxGeometry x="270" y="725" width="30" height="30" as="geometry" />
        </mxCell>
        <mxCell id="DzfKtU53nQsjvPbgfAun-111" value="1" style="text;html=1;align=center;verticalAlign=middle;resizable=0;points=[];autosize=1;strokeColor=none;fillColor=none;" vertex="1" parent="1">
          <mxGeometry x="400" y="725" width="30" height="30" as="geometry" />
        </mxCell>
        <mxCell id="DzfKtU53nQsjvPbgfAun-112" value="1" style="text;html=1;align=center;verticalAlign=middle;resizable=0;points=[];autosize=1;strokeColor=none;fillColor=none;" vertex="1" parent="1">
          <mxGeometry x="480" y="725" width="30" height="30" as="geometry" />
        </mxCell>
        <mxCell id="DzfKtU53nQsjvPbgfAun-113" value="주민번호" style="ellipse;whiteSpace=wrap;html=1;fontStyle=4" vertex="1" parent="1">
          <mxGeometry x="45" y="800" width="70" height="40" as="geometry" />
        </mxCell>
        <mxCell id="DzfKtU53nQsjvPbgfAun-114" value="이름" style="ellipse;whiteSpace=wrap;html=1;" vertex="1" parent="1">
          <mxGeometry x="125" y="800" width="70" height="40" as="geometry" />
        </mxCell>
        <mxCell id="DzfKtU53nQsjvPbgfAun-115" value="지문ID" style="ellipse;whiteSpace=wrap;html=1;fontStyle=4" vertex="1" parent="1">
          <mxGeometry x="450" y="800" width="70" height="40" as="geometry" />
        </mxCell>
        <mxCell id="DzfKtU53nQsjvPbgfAun-116" value="엄지이미지" style="ellipse;whiteSpace=wrap;html=1;" vertex="1" parent="1">
          <mxGeometry x="535" y="800" width="70" height="40" as="geometry" />
        </mxCell>
        <mxCell id="DzfKtU53nQsjvPbgfAun-117" value="검지 이미지" style="ellipse;whiteSpace=wrap;html=1;" vertex="1" parent="1">
          <mxGeometry x="620" y="800" width="70" height="40" as="geometry" />
        </mxCell>
        <mxCell id="DzfKtU53nQsjvPbgfAun-118" value="테이블 간 관계가 1:N" style="text;html=1;align=center;verticalAlign=middle;resizable=0;points=[];autosize=1;strokeColor=none;fillColor=none;" vertex="1" parent="1">
          <mxGeometry x="52.5" y="898" width="140" height="30" as="geometry" />
        </mxCell>
        <mxCell id="DzfKtU53nQsjvPbgfAun-119" value="사번&lt;br&gt;(PK)" style="ellipse;whiteSpace=wrap;html=1;align=center;fontStyle=4" vertex="1" parent="1">
          <mxGeometry x="20" y="1030" width="65" height="40" as="geometry" />
        </mxCell>
        <mxCell id="DzfKtU53nQsjvPbgfAun-120" value="이름" style="ellipse;whiteSpace=wrap;html=1;align=center;" vertex="1" parent="1">
          <mxGeometry x="155" y="1030" width="65" height="40" as="geometry" />
        </mxCell>
        <mxCell id="DzfKtU53nQsjvPbgfAun-121" value="연락처" style="ellipse;whiteSpace=wrap;html=1;align=center;" vertex="1" parent="1">
          <mxGeometry x="230" y="1030" width="65" height="40" as="geometry" />
        </mxCell>
        <mxCell id="DzfKtU53nQsjvPbgfAun-122" value="부서명" style="ellipse;whiteSpace=wrap;html=1;align=center;" vertex="1" parent="1">
          <mxGeometry x="550" y="1030" width="65" height="40" as="geometry" />
        </mxCell>
        <mxCell id="DzfKtU53nQsjvPbgfAun-123" value="인원" style="ellipse;whiteSpace=wrap;html=1;align=center;" vertex="1" parent="1">
          <mxGeometry x="625" y="1030" width="65" height="40" as="geometry" />
        </mxCell>
        <mxCell id="DzfKtU53nQsjvPbgfAun-126" value="부서_ID&lt;br&gt;(PK)" style="ellipse;whiteSpace=wrap;html=1;align=center;fontStyle=4" vertex="1" parent="1">
          <mxGeometry x="480" y="1030" width="65" height="40" as="geometry" />
        </mxCell>
        <mxCell id="DzfKtU53nQsjvPbgfAun-127" value="부서ID&lt;br&gt;(FK)" style="ellipse;whiteSpace=wrap;html=1;align=center;" vertex="1" parent="1">
          <mxGeometry x="87.5" y="1030" width="65" height="40" as="geometry" />
        </mxCell>
        <mxCell id="DzfKtU53nQsjvPbgfAun-154" value="" style="edgeStyle=orthogonalEdgeStyle;rounded=0;orthogonalLoop=1;jettySize=auto;html=1;endArrow=ERmandOne;endFill=0;startArrow=ERoneToMany;startFill=0;" edge="1" parent="1" source="DzfKtU53nQsjvPbgfAun-128" target="DzfKtU53nQsjvPbgfAun-141">
          <mxGeometry relative="1" as="geometry" />
        </mxCell>
        <mxCell id="DzfKtU53nQsjvPbgfAun-128" value="직원" style="shape=table;startSize=30;container=1;collapsible=1;childLayout=tableLayout;fixedRows=1;rowLines=0;fontStyle=1;align=center;resizeLast=1;html=1;" vertex="1" parent="1">
          <mxGeometry x="770" y="928" width="180" height="180" as="geometry" />
        </mxCell>
        <mxCell id="DzfKtU53nQsjvPbgfAun-129" value="" style="shape=tableRow;horizontal=0;startSize=0;swimlaneHead=0;swimlaneBody=0;fillColor=none;collapsible=0;dropTarget=0;points=[[0,0.5],[1,0.5]];portConstraint=eastwest;top=0;left=0;right=0;bottom=1;" vertex="1" parent="DzfKtU53nQsjvPbgfAun-128">
          <mxGeometry y="30" width="180" height="30" as="geometry" />
        </mxCell>
        <mxCell id="DzfKtU53nQsjvPbgfAun-130" value="PK" style="shape=partialRectangle;connectable=0;fillColor=none;top=0;left=0;bottom=0;right=0;fontStyle=1;overflow=hidden;whiteSpace=wrap;html=1;" vertex="1" parent="DzfKtU53nQsjvPbgfAun-129">
          <mxGeometry width="30" height="30" as="geometry">
            <mxRectangle width="30" height="30" as="alternateBounds" />
          </mxGeometry>
        </mxCell>
        <mxCell id="DzfKtU53nQsjvPbgfAun-131" value="사번" style="shape=partialRectangle;connectable=0;fillColor=none;top=0;left=0;bottom=0;right=0;align=left;spacingLeft=6;fontStyle=5;overflow=hidden;whiteSpace=wrap;html=1;" vertex="1" parent="DzfKtU53nQsjvPbgfAun-129">
          <mxGeometry x="30" width="150" height="30" as="geometry">
            <mxRectangle width="150" height="30" as="alternateBounds" />
          </mxGeometry>
        </mxCell>
        <mxCell id="DzfKtU53nQsjvPbgfAun-157" value="" style="shape=tableRow;horizontal=0;startSize=0;swimlaneHead=0;swimlaneBody=0;fillColor=none;collapsible=0;dropTarget=0;points=[[0,0.5],[1,0.5]];portConstraint=eastwest;top=0;left=0;right=0;bottom=1;" vertex="1" parent="DzfKtU53nQsjvPbgfAun-128">
          <mxGeometry y="60" width="180" height="30" as="geometry" />
        </mxCell>
        <mxCell id="DzfKtU53nQsjvPbgfAun-158" value="FK" style="shape=partialRectangle;connectable=0;fillColor=none;top=0;left=0;bottom=0;right=0;fontStyle=1;overflow=hidden;whiteSpace=wrap;html=1;" vertex="1" parent="DzfKtU53nQsjvPbgfAun-157">
          <mxGeometry width="30" height="30" as="geometry">
            <mxRectangle width="30" height="30" as="alternateBounds" />
          </mxGeometry>
        </mxCell>
        <mxCell id="DzfKtU53nQsjvPbgfAun-159" value="부서_ID" style="shape=partialRectangle;connectable=0;fillColor=none;top=0;left=0;bottom=0;right=0;align=left;spacingLeft=6;fontStyle=5;overflow=hidden;whiteSpace=wrap;html=1;" vertex="1" parent="DzfKtU53nQsjvPbgfAun-157">
          <mxGeometry x="30" width="150" height="30" as="geometry">
            <mxRectangle width="150" height="30" as="alternateBounds" />
          </mxGeometry>
        </mxCell>
        <mxCell id="DzfKtU53nQsjvPbgfAun-132" value="" style="shape=tableRow;horizontal=0;startSize=0;swimlaneHead=0;swimlaneBody=0;fillColor=none;collapsible=0;dropTarget=0;points=[[0,0.5],[1,0.5]];portConstraint=eastwest;top=0;left=0;right=0;bottom=0;" vertex="1" parent="DzfKtU53nQsjvPbgfAun-128">
          <mxGeometry y="90" width="180" height="30" as="geometry" />
        </mxCell>
        <mxCell id="DzfKtU53nQsjvPbgfAun-133" value="" style="shape=partialRectangle;connectable=0;fillColor=none;top=0;left=0;bottom=0;right=0;editable=1;overflow=hidden;whiteSpace=wrap;html=1;" vertex="1" parent="DzfKtU53nQsjvPbgfAun-132">
          <mxGeometry width="30" height="30" as="geometry">
            <mxRectangle width="30" height="30" as="alternateBounds" />
          </mxGeometry>
        </mxCell>
        <mxCell id="DzfKtU53nQsjvPbgfAun-134" value="이름" style="shape=partialRectangle;connectable=0;fillColor=none;top=0;left=0;bottom=0;right=0;align=left;spacingLeft=6;overflow=hidden;whiteSpace=wrap;html=1;" vertex="1" parent="DzfKtU53nQsjvPbgfAun-132">
          <mxGeometry x="30" width="150" height="30" as="geometry">
            <mxRectangle width="150" height="30" as="alternateBounds" />
          </mxGeometry>
        </mxCell>
        <mxCell id="DzfKtU53nQsjvPbgfAun-135" value="" style="shape=tableRow;horizontal=0;startSize=0;swimlaneHead=0;swimlaneBody=0;fillColor=none;collapsible=0;dropTarget=0;points=[[0,0.5],[1,0.5]];portConstraint=eastwest;top=0;left=0;right=0;bottom=0;" vertex="1" parent="DzfKtU53nQsjvPbgfAun-128">
          <mxGeometry y="120" width="180" height="30" as="geometry" />
        </mxCell>
        <mxCell id="DzfKtU53nQsjvPbgfAun-136" value="" style="shape=partialRectangle;connectable=0;fillColor=none;top=0;left=0;bottom=0;right=0;editable=1;overflow=hidden;whiteSpace=wrap;html=1;" vertex="1" parent="DzfKtU53nQsjvPbgfAun-135">
          <mxGeometry width="30" height="30" as="geometry">
            <mxRectangle width="30" height="30" as="alternateBounds" />
          </mxGeometry>
        </mxCell>
        <mxCell id="DzfKtU53nQsjvPbgfAun-137" value="직책" style="shape=partialRectangle;connectable=0;fillColor=none;top=0;left=0;bottom=0;right=0;align=left;spacingLeft=6;overflow=hidden;whiteSpace=wrap;html=1;" vertex="1" parent="DzfKtU53nQsjvPbgfAun-135">
          <mxGeometry x="30" width="150" height="30" as="geometry">
            <mxRectangle width="150" height="30" as="alternateBounds" />
          </mxGeometry>
        </mxCell>
        <mxCell id="DzfKtU53nQsjvPbgfAun-138" value="" style="shape=tableRow;horizontal=0;startSize=0;swimlaneHead=0;swimlaneBody=0;fillColor=none;collapsible=0;dropTarget=0;points=[[0,0.5],[1,0.5]];portConstraint=eastwest;top=0;left=0;right=0;bottom=0;" vertex="1" parent="DzfKtU53nQsjvPbgfAun-128">
          <mxGeometry y="150" width="180" height="30" as="geometry" />
        </mxCell>
        <mxCell id="DzfKtU53nQsjvPbgfAun-139" value="" style="shape=partialRectangle;connectable=0;fillColor=none;top=0;left=0;bottom=0;right=0;editable=1;overflow=hidden;whiteSpace=wrap;html=1;" vertex="1" parent="DzfKtU53nQsjvPbgfAun-138">
          <mxGeometry width="30" height="30" as="geometry">
            <mxRectangle width="30" height="30" as="alternateBounds" />
          </mxGeometry>
        </mxCell>
        <mxCell id="DzfKtU53nQsjvPbgfAun-140" value="연락처" style="shape=partialRectangle;connectable=0;fillColor=none;top=0;left=0;bottom=0;right=0;align=left;spacingLeft=6;overflow=hidden;whiteSpace=wrap;html=1;" vertex="1" parent="DzfKtU53nQsjvPbgfAun-138">
          <mxGeometry x="30" width="150" height="30" as="geometry">
            <mxRectangle width="150" height="30" as="alternateBounds" />
          </mxGeometry>
        </mxCell>
        <mxCell id="DzfKtU53nQsjvPbgfAun-141" value="부서" style="shape=table;startSize=30;container=1;collapsible=1;childLayout=tableLayout;fixedRows=1;rowLines=0;fontStyle=1;align=center;resizeLast=1;html=1;" vertex="1" parent="1">
          <mxGeometry x="1040" y="943" width="180" height="150" as="geometry" />
        </mxCell>
        <mxCell id="DzfKtU53nQsjvPbgfAun-142" value="" style="shape=tableRow;horizontal=0;startSize=0;swimlaneHead=0;swimlaneBody=0;fillColor=none;collapsible=0;dropTarget=0;points=[[0,0.5],[1,0.5]];portConstraint=eastwest;top=0;left=0;right=0;bottom=1;" vertex="1" parent="DzfKtU53nQsjvPbgfAun-141">
          <mxGeometry y="30" width="180" height="30" as="geometry" />
        </mxCell>
        <mxCell id="DzfKtU53nQsjvPbgfAun-143" value="PK" style="shape=partialRectangle;connectable=0;fillColor=none;top=0;left=0;bottom=0;right=0;fontStyle=1;overflow=hidden;whiteSpace=wrap;html=1;" vertex="1" parent="DzfKtU53nQsjvPbgfAun-142">
          <mxGeometry width="30" height="30" as="geometry">
            <mxRectangle width="30" height="30" as="alternateBounds" />
          </mxGeometry>
        </mxCell>
        <mxCell id="DzfKtU53nQsjvPbgfAun-144" value="부서_ID" style="shape=partialRectangle;connectable=0;fillColor=none;top=0;left=0;bottom=0;right=0;align=left;spacingLeft=6;fontStyle=5;overflow=hidden;whiteSpace=wrap;html=1;" vertex="1" parent="DzfKtU53nQsjvPbgfAun-142">
          <mxGeometry x="30" width="150" height="30" as="geometry">
            <mxRectangle width="150" height="30" as="alternateBounds" />
          </mxGeometry>
        </mxCell>
        <mxCell id="DzfKtU53nQsjvPbgfAun-145" value="" style="shape=tableRow;horizontal=0;startSize=0;swimlaneHead=0;swimlaneBody=0;fillColor=none;collapsible=0;dropTarget=0;points=[[0,0.5],[1,0.5]];portConstraint=eastwest;top=0;left=0;right=0;bottom=0;" vertex="1" parent="DzfKtU53nQsjvPbgfAun-141">
          <mxGeometry y="60" width="180" height="30" as="geometry" />
        </mxCell>
        <mxCell id="DzfKtU53nQsjvPbgfAun-146" value="" style="shape=partialRectangle;connectable=0;fillColor=none;top=0;left=0;bottom=0;right=0;editable=1;overflow=hidden;whiteSpace=wrap;html=1;" vertex="1" parent="DzfKtU53nQsjvPbgfAun-145">
          <mxGeometry width="30" height="30" as="geometry">
            <mxRectangle width="30" height="30" as="alternateBounds" />
          </mxGeometry>
        </mxCell>
        <mxCell id="DzfKtU53nQsjvPbgfAun-147" value="부서명" style="shape=partialRectangle;connectable=0;fillColor=none;top=0;left=0;bottom=0;right=0;align=left;spacingLeft=6;overflow=hidden;whiteSpace=wrap;html=1;" vertex="1" parent="DzfKtU53nQsjvPbgfAun-145">
          <mxGeometry x="30" width="150" height="30" as="geometry">
            <mxRectangle width="150" height="30" as="alternateBounds" />
          </mxGeometry>
        </mxCell>
        <mxCell id="DzfKtU53nQsjvPbgfAun-148" value="" style="shape=tableRow;horizontal=0;startSize=0;swimlaneHead=0;swimlaneBody=0;fillColor=none;collapsible=0;dropTarget=0;points=[[0,0.5],[1,0.5]];portConstraint=eastwest;top=0;left=0;right=0;bottom=0;" vertex="1" parent="DzfKtU53nQsjvPbgfAun-141">
          <mxGeometry y="90" width="180" height="30" as="geometry" />
        </mxCell>
        <mxCell id="DzfKtU53nQsjvPbgfAun-149" value="" style="shape=partialRectangle;connectable=0;fillColor=none;top=0;left=0;bottom=0;right=0;editable=1;overflow=hidden;whiteSpace=wrap;html=1;" vertex="1" parent="DzfKtU53nQsjvPbgfAun-148">
          <mxGeometry width="30" height="30" as="geometry">
            <mxRectangle width="30" height="30" as="alternateBounds" />
          </mxGeometry>
        </mxCell>
        <mxCell id="DzfKtU53nQsjvPbgfAun-150" value="인원" style="shape=partialRectangle;connectable=0;fillColor=none;top=0;left=0;bottom=0;right=0;align=left;spacingLeft=6;overflow=hidden;whiteSpace=wrap;html=1;" vertex="1" parent="DzfKtU53nQsjvPbgfAun-148">
          <mxGeometry x="30" width="150" height="30" as="geometry">
            <mxRectangle width="150" height="30" as="alternateBounds" />
          </mxGeometry>
        </mxCell>
        <mxCell id="DzfKtU53nQsjvPbgfAun-151" value="" style="shape=tableRow;horizontal=0;startSize=0;swimlaneHead=0;swimlaneBody=0;fillColor=none;collapsible=0;dropTarget=0;points=[[0,0.5],[1,0.5]];portConstraint=eastwest;top=0;left=0;right=0;bottom=0;" vertex="1" parent="DzfKtU53nQsjvPbgfAun-141">
          <mxGeometry y="120" width="180" height="30" as="geometry" />
        </mxCell>
        <mxCell id="DzfKtU53nQsjvPbgfAun-152" value="" style="shape=partialRectangle;connectable=0;fillColor=none;top=0;left=0;bottom=0;right=0;editable=1;overflow=hidden;whiteSpace=wrap;html=1;" vertex="1" parent="DzfKtU53nQsjvPbgfAun-151">
          <mxGeometry width="30" height="30" as="geometry">
            <mxRectangle width="30" height="30" as="alternateBounds" />
          </mxGeometry>
        </mxCell>
        <mxCell id="DzfKtU53nQsjvPbgfAun-153" value="부서번호" style="shape=partialRectangle;connectable=0;fillColor=none;top=0;left=0;bottom=0;right=0;align=left;spacingLeft=6;overflow=hidden;whiteSpace=wrap;html=1;" vertex="1" parent="DzfKtU53nQsjvPbgfAun-151">
          <mxGeometry x="30" width="150" height="30" as="geometry">
            <mxRectangle width="150" height="30" as="alternateBounds" />
          </mxGeometry>
        </mxCell>
        <mxCell id="DzfKtU53nQsjvPbgfAun-155" value="하위/자식" style="text;html=1;align=center;verticalAlign=middle;resizable=0;points=[];autosize=1;strokeColor=none;fillColor=none;" vertex="1" parent="1">
          <mxGeometry x="770" y="890" width="70" height="30" as="geometry" />
        </mxCell>
        <mxCell id="DzfKtU53nQsjvPbgfAun-156" value="상위/부모" style="text;html=1;align=center;verticalAlign=middle;resizable=0;points=[];autosize=1;strokeColor=none;fillColor=none;" vertex="1" parent="1">
          <mxGeometry x="1030" y="890" width="70" height="30" as="geometry" />
        </mxCell>
        <mxCell id="DzfKtU53nQsjvPbgfAun-160" value="" style="edgeStyle=orthogonalEdgeStyle;rounded=0;orthogonalLoop=1;jettySize=auto;html=1;endArrow=none;endFill=0;" edge="1" parent="1" source="DzfKtU53nQsjvPbgfAun-161" target="DzfKtU53nQsjvPbgfAun-164">
          <mxGeometry relative="1" as="geometry" />
        </mxCell>
        <mxCell id="DzfKtU53nQsjvPbgfAun-161" value="컴퓨터 본체" style="rounded=0;whiteSpace=wrap;html=1;" vertex="1" parent="1">
          <mxGeometry x="70" y="1215" width="120" height="60" as="geometry" />
        </mxCell>
        <mxCell id="DzfKtU53nQsjvPbgfAun-162" value="모니터" style="rounded=0;whiteSpace=wrap;html=1;" vertex="1" parent="1">
          <mxGeometry x="520" y="1215" width="120" height="60" as="geometry" />
        </mxCell>
        <mxCell id="DzfKtU53nQsjvPbgfAun-163" value="" style="edgeStyle=orthogonalEdgeStyle;rounded=0;orthogonalLoop=1;jettySize=auto;html=1;endArrow=none;endFill=0;" edge="1" parent="1" source="DzfKtU53nQsjvPbgfAun-164" target="DzfKtU53nQsjvPbgfAun-162">
          <mxGeometry relative="1" as="geometry" />
        </mxCell>
        <mxCell id="DzfKtU53nQsjvPbgfAun-164" value="소속" style="rhombus;whiteSpace=wrap;html=1;" vertex="1" parent="1">
          <mxGeometry x="295" y="1210" width="124" height="70" as="geometry" />
        </mxCell>
        <mxCell id="DzfKtU53nQsjvPbgfAun-165" value="1" style="text;html=1;align=center;verticalAlign=middle;resizable=0;points=[];autosize=1;strokeColor=none;fillColor=none;" vertex="1" parent="1">
          <mxGeometry x="190" y="1215" width="30" height="30" as="geometry" />
        </mxCell>
        <mxCell id="DzfKtU53nQsjvPbgfAun-166" value="1" style="text;html=1;align=center;verticalAlign=middle;resizable=0;points=[];autosize=1;strokeColor=none;fillColor=none;" vertex="1" parent="1">
          <mxGeometry x="405" y="1215" width="30" height="30" as="geometry" />
        </mxCell>
        <mxCell id="DzfKtU53nQsjvPbgfAun-167" value="N" style="text;html=1;align=center;verticalAlign=middle;resizable=0;points=[];autosize=1;strokeColor=none;fillColor=none;" vertex="1" parent="1">
          <mxGeometry x="280" y="1215" width="30" height="30" as="geometry" />
        </mxCell>
        <mxCell id="DzfKtU53nQsjvPbgfAun-168" value="1" style="text;html=1;align=center;verticalAlign=middle;resizable=0;points=[];autosize=1;strokeColor=none;fillColor=none;" vertex="1" parent="1">
          <mxGeometry x="490" y="1215" width="30" height="30" as="geometry" />
        </mxCell>
        <mxCell id="DzfKtU53nQsjvPbgfAun-169" value="고유번호&lt;br&gt;(PK)" style="ellipse;whiteSpace=wrap;html=1;align=center;fontStyle=4" vertex="1" parent="1">
          <mxGeometry x="20" y="1290" width="65" height="40" as="geometry" />
        </mxCell>
        <mxCell id="DzfKtU53nQsjvPbgfAun-170" value="제품명" style="ellipse;whiteSpace=wrap;html=1;align=center;" vertex="1" parent="1">
          <mxGeometry x="155" y="1290" width="65" height="40" as="geometry" />
        </mxCell>
        <mxCell id="DzfKtU53nQsjvPbgfAun-171" value="본체 사양" style="ellipse;whiteSpace=wrap;html=1;align=center;" vertex="1" parent="1">
          <mxGeometry x="227.5" y="1290" width="65" height="40" as="geometry" />
        </mxCell>
        <mxCell id="DzfKtU53nQsjvPbgfAun-173" value="제품사양" style="ellipse;whiteSpace=wrap;html=1;align=center;" vertex="1" parent="1">
          <mxGeometry x="632.25" y="1290" width="65" height="40" as="geometry" />
        </mxCell>
        <mxCell id="DzfKtU53nQsjvPbgfAun-174" value="모니터품번&lt;br&gt;(PK)" style="ellipse;whiteSpace=wrap;html=1;align=center;fontStyle=4" vertex="1" parent="1">
          <mxGeometry x="482.5" y="1290" width="65" height="40" as="geometry" />
        </mxCell>
        <mxCell id="DzfKtU53nQsjvPbgfAun-176" value="모니터품번&lt;br&gt;(FK)" style="ellipse;whiteSpace=wrap;html=1;align=center;" vertex="1" parent="1">
          <mxGeometry x="87.5" y="1290" width="65" height="40" as="geometry" />
        </mxCell>
        <mxCell id="DzfKtU53nQsjvPbgfAun-209" value="" style="edgeStyle=orthogonalEdgeStyle;rounded=0;orthogonalLoop=1;jettySize=auto;html=1;startArrow=ERmandOne;startFill=0;endArrow=ERoneToMany;endFill=0;" edge="1" parent="1" source="DzfKtU53nQsjvPbgfAun-177" target="DzfKtU53nQsjvPbgfAun-193">
          <mxGeometry relative="1" as="geometry" />
        </mxCell>
        <mxCell id="DzfKtU53nQsjvPbgfAun-177" value="컴퓨터 본체" style="shape=table;startSize=30;container=1;collapsible=1;childLayout=tableLayout;fixedRows=1;rowLines=0;fontStyle=1;align=center;resizeLast=1;html=1;" vertex="1" parent="1">
          <mxGeometry x="760" y="1220" width="180" height="150" as="geometry" />
        </mxCell>
        <mxCell id="DzfKtU53nQsjvPbgfAun-178" value="" style="shape=tableRow;horizontal=0;startSize=0;swimlaneHead=0;swimlaneBody=0;fillColor=none;collapsible=0;dropTarget=0;points=[[0,0.5],[1,0.5]];portConstraint=eastwest;top=0;left=0;right=0;bottom=1;" vertex="1" parent="DzfKtU53nQsjvPbgfAun-177">
          <mxGeometry y="30" width="180" height="30" as="geometry" />
        </mxCell>
        <mxCell id="DzfKtU53nQsjvPbgfAun-179" value="PK" style="shape=partialRectangle;connectable=0;fillColor=none;top=0;left=0;bottom=0;right=0;fontStyle=1;overflow=hidden;whiteSpace=wrap;html=1;" vertex="1" parent="DzfKtU53nQsjvPbgfAun-178">
          <mxGeometry width="30" height="30" as="geometry">
            <mxRectangle width="30" height="30" as="alternateBounds" />
          </mxGeometry>
        </mxCell>
        <mxCell id="DzfKtU53nQsjvPbgfAun-180" value="고유번호" style="shape=partialRectangle;connectable=0;fillColor=none;top=0;left=0;bottom=0;right=0;align=left;spacingLeft=6;fontStyle=5;overflow=hidden;whiteSpace=wrap;html=1;" vertex="1" parent="DzfKtU53nQsjvPbgfAun-178">
          <mxGeometry x="30" width="150" height="30" as="geometry">
            <mxRectangle width="150" height="30" as="alternateBounds" />
          </mxGeometry>
        </mxCell>
        <mxCell id="DzfKtU53nQsjvPbgfAun-184" value="" style="shape=tableRow;horizontal=0;startSize=0;swimlaneHead=0;swimlaneBody=0;fillColor=none;collapsible=0;dropTarget=0;points=[[0,0.5],[1,0.5]];portConstraint=eastwest;top=0;left=0;right=0;bottom=0;" vertex="1" parent="DzfKtU53nQsjvPbgfAun-177">
          <mxGeometry y="60" width="180" height="30" as="geometry" />
        </mxCell>
        <mxCell id="DzfKtU53nQsjvPbgfAun-185" value="" style="shape=partialRectangle;connectable=0;fillColor=none;top=0;left=0;bottom=0;right=0;editable=1;overflow=hidden;whiteSpace=wrap;html=1;" vertex="1" parent="DzfKtU53nQsjvPbgfAun-184">
          <mxGeometry width="30" height="30" as="geometry">
            <mxRectangle width="30" height="30" as="alternateBounds" />
          </mxGeometry>
        </mxCell>
        <mxCell id="DzfKtU53nQsjvPbgfAun-186" value="제품명" style="shape=partialRectangle;connectable=0;fillColor=none;top=0;left=0;bottom=0;right=0;align=left;spacingLeft=6;overflow=hidden;whiteSpace=wrap;html=1;" vertex="1" parent="DzfKtU53nQsjvPbgfAun-184">
          <mxGeometry x="30" width="150" height="30" as="geometry">
            <mxRectangle width="150" height="30" as="alternateBounds" />
          </mxGeometry>
        </mxCell>
        <mxCell id="DzfKtU53nQsjvPbgfAun-187" value="" style="shape=tableRow;horizontal=0;startSize=0;swimlaneHead=0;swimlaneBody=0;fillColor=none;collapsible=0;dropTarget=0;points=[[0,0.5],[1,0.5]];portConstraint=eastwest;top=0;left=0;right=0;bottom=0;" vertex="1" parent="DzfKtU53nQsjvPbgfAun-177">
          <mxGeometry y="90" width="180" height="30" as="geometry" />
        </mxCell>
        <mxCell id="DzfKtU53nQsjvPbgfAun-188" value="" style="shape=partialRectangle;connectable=0;fillColor=none;top=0;left=0;bottom=0;right=0;editable=1;overflow=hidden;whiteSpace=wrap;html=1;" vertex="1" parent="DzfKtU53nQsjvPbgfAun-187">
          <mxGeometry width="30" height="30" as="geometry">
            <mxRectangle width="30" height="30" as="alternateBounds" />
          </mxGeometry>
        </mxCell>
        <mxCell id="DzfKtU53nQsjvPbgfAun-189" value="본체 사양" style="shape=partialRectangle;connectable=0;fillColor=none;top=0;left=0;bottom=0;right=0;align=left;spacingLeft=6;overflow=hidden;whiteSpace=wrap;html=1;" vertex="1" parent="DzfKtU53nQsjvPbgfAun-187">
          <mxGeometry x="30" width="150" height="30" as="geometry">
            <mxRectangle width="150" height="30" as="alternateBounds" />
          </mxGeometry>
        </mxCell>
        <mxCell id="DzfKtU53nQsjvPbgfAun-190" value="" style="shape=tableRow;horizontal=0;startSize=0;swimlaneHead=0;swimlaneBody=0;fillColor=none;collapsible=0;dropTarget=0;points=[[0,0.5],[1,0.5]];portConstraint=eastwest;top=0;left=0;right=0;bottom=0;" vertex="1" parent="DzfKtU53nQsjvPbgfAun-177">
          <mxGeometry y="120" width="180" height="30" as="geometry" />
        </mxCell>
        <mxCell id="DzfKtU53nQsjvPbgfAun-191" value="" style="shape=partialRectangle;connectable=0;fillColor=none;top=0;left=0;bottom=0;right=0;editable=1;overflow=hidden;whiteSpace=wrap;html=1;" vertex="1" parent="DzfKtU53nQsjvPbgfAun-190">
          <mxGeometry width="30" height="30" as="geometry">
            <mxRectangle width="30" height="30" as="alternateBounds" />
          </mxGeometry>
        </mxCell>
        <mxCell id="DzfKtU53nQsjvPbgfAun-192" value="네트워크 주소" style="shape=partialRectangle;connectable=0;fillColor=none;top=0;left=0;bottom=0;right=0;align=left;spacingLeft=6;overflow=hidden;whiteSpace=wrap;html=1;" vertex="1" parent="DzfKtU53nQsjvPbgfAun-190">
          <mxGeometry x="30" width="150" height="30" as="geometry">
            <mxRectangle width="150" height="30" as="alternateBounds" />
          </mxGeometry>
        </mxCell>
        <mxCell id="DzfKtU53nQsjvPbgfAun-193" value="모니터" style="shape=table;startSize=30;container=1;collapsible=1;childLayout=tableLayout;fixedRows=1;rowLines=0;fontStyle=1;align=center;resizeLast=1;html=1;" vertex="1" parent="1">
          <mxGeometry x="1030" y="1220" width="180" height="150" as="geometry" />
        </mxCell>
        <mxCell id="DzfKtU53nQsjvPbgfAun-194" value="" style="shape=tableRow;horizontal=0;startSize=0;swimlaneHead=0;swimlaneBody=0;fillColor=none;collapsible=0;dropTarget=0;points=[[0,0.5],[1,0.5]];portConstraint=eastwest;top=0;left=0;right=0;bottom=1;" vertex="1" parent="DzfKtU53nQsjvPbgfAun-193">
          <mxGeometry y="30" width="180" height="30" as="geometry" />
        </mxCell>
        <mxCell id="DzfKtU53nQsjvPbgfAun-195" value="PK" style="shape=partialRectangle;connectable=0;fillColor=none;top=0;left=0;bottom=0;right=0;fontStyle=1;overflow=hidden;whiteSpace=wrap;html=1;" vertex="1" parent="DzfKtU53nQsjvPbgfAun-194">
          <mxGeometry width="30" height="30" as="geometry">
            <mxRectangle width="30" height="30" as="alternateBounds" />
          </mxGeometry>
        </mxCell>
        <mxCell id="DzfKtU53nQsjvPbgfAun-196" value="&amp;nbsp;모니터품번" style="shape=partialRectangle;connectable=0;fillColor=none;top=0;left=0;bottom=0;right=0;align=left;spacingLeft=6;fontStyle=5;overflow=hidden;whiteSpace=wrap;html=1;" vertex="1" parent="DzfKtU53nQsjvPbgfAun-194">
          <mxGeometry x="30" width="150" height="30" as="geometry">
            <mxRectangle width="150" height="30" as="alternateBounds" />
          </mxGeometry>
        </mxCell>
        <mxCell id="DzfKtU53nQsjvPbgfAun-229" value="" style="shape=tableRow;horizontal=0;startSize=0;swimlaneHead=0;swimlaneBody=0;fillColor=none;collapsible=0;dropTarget=0;points=[[0,0.5],[1,0.5]];portConstraint=eastwest;top=0;left=0;right=0;bottom=1;" vertex="1" parent="DzfKtU53nQsjvPbgfAun-193">
          <mxGeometry y="60" width="180" height="30" as="geometry" />
        </mxCell>
        <mxCell id="DzfKtU53nQsjvPbgfAun-230" value="FK" style="shape=partialRectangle;connectable=0;fillColor=none;top=0;left=0;bottom=0;right=0;fontStyle=1;overflow=hidden;whiteSpace=wrap;html=1;" vertex="1" parent="DzfKtU53nQsjvPbgfAun-229">
          <mxGeometry width="30" height="30" as="geometry">
            <mxRectangle width="30" height="30" as="alternateBounds" />
          </mxGeometry>
        </mxCell>
        <mxCell id="DzfKtU53nQsjvPbgfAun-231" value="고유번호" style="shape=partialRectangle;connectable=0;fillColor=none;top=0;left=0;bottom=0;right=0;align=left;spacingLeft=6;fontStyle=5;overflow=hidden;whiteSpace=wrap;html=1;" vertex="1" parent="DzfKtU53nQsjvPbgfAun-229">
          <mxGeometry x="30" width="150" height="30" as="geometry">
            <mxRectangle width="150" height="30" as="alternateBounds" />
          </mxGeometry>
        </mxCell>
        <mxCell id="DzfKtU53nQsjvPbgfAun-200" value="" style="shape=tableRow;horizontal=0;startSize=0;swimlaneHead=0;swimlaneBody=0;fillColor=none;collapsible=0;dropTarget=0;points=[[0,0.5],[1,0.5]];portConstraint=eastwest;top=0;left=0;right=0;bottom=0;" vertex="1" parent="DzfKtU53nQsjvPbgfAun-193">
          <mxGeometry y="90" width="180" height="30" as="geometry" />
        </mxCell>
        <mxCell id="DzfKtU53nQsjvPbgfAun-201" value="" style="shape=partialRectangle;connectable=0;fillColor=none;top=0;left=0;bottom=0;right=0;editable=1;overflow=hidden;whiteSpace=wrap;html=1;" vertex="1" parent="DzfKtU53nQsjvPbgfAun-200">
          <mxGeometry width="30" height="30" as="geometry">
            <mxRectangle width="30" height="30" as="alternateBounds" />
          </mxGeometry>
        </mxCell>
        <mxCell id="DzfKtU53nQsjvPbgfAun-202" value="제품사양" style="shape=partialRectangle;connectable=0;fillColor=none;top=0;left=0;bottom=0;right=0;align=left;spacingLeft=6;overflow=hidden;whiteSpace=wrap;html=1;" vertex="1" parent="DzfKtU53nQsjvPbgfAun-200">
          <mxGeometry x="30" width="150" height="30" as="geometry">
            <mxRectangle width="150" height="30" as="alternateBounds" />
          </mxGeometry>
        </mxCell>
        <mxCell id="DzfKtU53nQsjvPbgfAun-203" value="" style="shape=tableRow;horizontal=0;startSize=0;swimlaneHead=0;swimlaneBody=0;fillColor=none;collapsible=0;dropTarget=0;points=[[0,0.5],[1,0.5]];portConstraint=eastwest;top=0;left=0;right=0;bottom=0;" vertex="1" parent="DzfKtU53nQsjvPbgfAun-193">
          <mxGeometry y="120" width="180" height="30" as="geometry" />
        </mxCell>
        <mxCell id="DzfKtU53nQsjvPbgfAun-204" value="" style="shape=partialRectangle;connectable=0;fillColor=none;top=0;left=0;bottom=0;right=0;editable=1;overflow=hidden;whiteSpace=wrap;html=1;" vertex="1" parent="DzfKtU53nQsjvPbgfAun-203">
          <mxGeometry width="30" height="30" as="geometry">
            <mxRectangle width="30" height="30" as="alternateBounds" />
          </mxGeometry>
        </mxCell>
        <mxCell id="DzfKtU53nQsjvPbgfAun-205" value="모델명" style="shape=partialRectangle;connectable=0;fillColor=none;top=0;left=0;bottom=0;right=0;align=left;spacingLeft=6;overflow=hidden;whiteSpace=wrap;html=1;" vertex="1" parent="DzfKtU53nQsjvPbgfAun-203">
          <mxGeometry x="30" width="150" height="30" as="geometry">
            <mxRectangle width="150" height="30" as="alternateBounds" />
          </mxGeometry>
        </mxCell>
        <mxCell id="DzfKtU53nQsjvPbgfAun-210" value="모델명" style="ellipse;whiteSpace=wrap;html=1;align=center;" vertex="1" parent="1">
          <mxGeometry x="560" y="1290" width="65" height="40" as="geometry" />
        </mxCell>
        <mxCell id="DzfKtU53nQsjvPbgfAun-232" value="테이블 간 관계가 N:M" style="text;html=1;align=center;verticalAlign=middle;resizable=0;points=[];autosize=1;strokeColor=none;fillColor=none;" vertex="1" parent="1">
          <mxGeometry x="60" y="1458" width="140" height="30" as="geometry" />
        </mxCell>
        <mxCell id="DzfKtU53nQsjvPbgfAun-233" value="강사명" style="ellipse;whiteSpace=wrap;html=1;" vertex="1" parent="1">
          <mxGeometry x="207.63" y="1610" width="65" height="35" as="geometry" />
        </mxCell>
        <mxCell id="DzfKtU53nQsjvPbgfAun-234" value="강의시간" style="ellipse;whiteSpace=wrap;html=1;" vertex="1" parent="1">
          <mxGeometry x="272.63" y="1610" width="65" height="35" as="geometry" />
        </mxCell>
        <mxCell id="DzfKtU53nQsjvPbgfAun-235" value="연락처" style="ellipse;whiteSpace=wrap;html=1;" vertex="1" parent="1">
          <mxGeometry x="947.38" y="1618" width="65" height="35" as="geometry" />
        </mxCell>
        <mxCell id="DzfKtU53nQsjvPbgfAun-236" value="" style="endArrow=none;html=1;rounded=0;entryX=0.5;entryY=1;entryDx=0;entryDy=0;exitX=0.5;exitY=0;exitDx=0;exitDy=0;" edge="1" parent="1" source="DzfKtU53nQsjvPbgfAun-45" target="DzfKtU53nQsjvPbgfAun-9">
          <mxGeometry width="50" height="50" relative="1" as="geometry">
            <mxPoint x="45" y="1590" as="sourcePoint" />
            <mxPoint x="95" y="1540" as="targetPoint" />
          </mxGeometry>
        </mxCell>
        <mxCell id="DzfKtU53nQsjvPbgfAun-237" value="" style="endArrow=none;html=1;rounded=0;exitX=0.5;exitY=0;exitDx=0;exitDy=0;entryX=0.5;entryY=1;entryDx=0;entryDy=0;" edge="1" parent="1" source="DzfKtU53nQsjvPbgfAun-47" target="DzfKtU53nQsjvPbgfAun-9">
          <mxGeometry width="50" height="50" relative="1" as="geometry">
            <mxPoint x="50.25" y="1598" as="sourcePoint" />
            <mxPoint x="130" y="1580" as="targetPoint" />
          </mxGeometry>
        </mxCell>
        <mxCell id="DzfKtU53nQsjvPbgfAun-238" value="" style="endArrow=none;html=1;rounded=0;exitX=0.5;exitY=0;exitDx=0;exitDy=0;entryX=0.5;entryY=1;entryDx=0;entryDy=0;" edge="1" parent="1" source="DzfKtU53nQsjvPbgfAun-48" target="DzfKtU53nQsjvPbgfAun-9">
          <mxGeometry width="50" height="50" relative="1" as="geometry">
            <mxPoint x="118" y="1600" as="sourcePoint" />
            <mxPoint x="145" y="1585" as="targetPoint" />
          </mxGeometry>
        </mxCell>
        <mxCell id="DzfKtU53nQsjvPbgfAun-240" value="S_ID&lt;br&gt;(FK)" style="ellipse;whiteSpace=wrap;html=1;" vertex="1" parent="1">
          <mxGeometry x="443.63" y="1610" width="65" height="35" as="geometry" />
        </mxCell>
        <mxCell id="DzfKtU53nQsjvPbgfAun-241" value="L_ID&lt;br&gt;(FK)" style="ellipse;whiteSpace=wrap;html=1;" vertex="1" parent="1">
          <mxGeometry x="508.63" y="1610" width="65" height="35" as="geometry" />
        </mxCell>
        <mxCell id="DzfKtU53nQsjvPbgfAun-242" value="R_ID&lt;br&gt;(PK)" style="ellipse;whiteSpace=wrap;html=1;fontStyle=4" vertex="1" parent="1">
          <mxGeometry x="376.13" y="1610" width="65" height="35" as="geometry" />
        </mxCell>
        <mxCell id="DzfKtU53nQsjvPbgfAun-243" value="R_Date" style="ellipse;whiteSpace=wrap;html=1;" vertex="1" parent="1">
          <mxGeometry x="573.63" y="1610" width="65" height="35" as="geometry" />
        </mxCell>
        <mxCell id="DzfKtU53nQsjvPbgfAun-244" value="누가? 무엇을?" style="text;html=1;align=center;verticalAlign=middle;resizable=0;points=[];autosize=1;strokeColor=none;fillColor=none;" vertex="1" parent="1">
          <mxGeometry x="520" y="1560" width="100" height="30" as="geometry" />
        </mxCell>
        <mxCell id="DzfKtU53nQsjvPbgfAun-245" value="N:M 관계에서는 관계형 테이블을 만드는 것을 기본을 한다" style="text;html=1;align=center;verticalAlign=middle;resizable=0;points=[];autosize=1;strokeColor=none;fillColor=none;" vertex="1" parent="1">
          <mxGeometry x="280" y="1428" width="330" height="30" as="geometry" />
        </mxCell>
        <mxCell id="DzfKtU53nQsjvPbgfAun-246" value="학생" style="shape=table;startSize=30;container=1;collapsible=1;childLayout=tableLayout;fixedRows=1;rowLines=0;fontStyle=1;align=center;resizeLast=1;html=1;" vertex="1" parent="1">
          <mxGeometry x="660" y="1715" width="180" height="150" as="geometry" />
        </mxCell>
        <mxCell id="DzfKtU53nQsjvPbgfAun-247" value="" style="shape=tableRow;horizontal=0;startSize=0;swimlaneHead=0;swimlaneBody=0;fillColor=none;collapsible=0;dropTarget=0;points=[[0,0.5],[1,0.5]];portConstraint=eastwest;top=0;left=0;right=0;bottom=1;" vertex="1" parent="DzfKtU53nQsjvPbgfAun-246">
          <mxGeometry y="30" width="180" height="30" as="geometry" />
        </mxCell>
        <mxCell id="DzfKtU53nQsjvPbgfAun-248" value="PK" style="shape=partialRectangle;connectable=0;fillColor=none;top=0;left=0;bottom=0;right=0;fontStyle=1;overflow=hidden;whiteSpace=wrap;html=1;" vertex="1" parent="DzfKtU53nQsjvPbgfAun-247">
          <mxGeometry width="30" height="30" as="geometry">
            <mxRectangle width="30" height="30" as="alternateBounds" />
          </mxGeometry>
        </mxCell>
        <mxCell id="DzfKtU53nQsjvPbgfAun-249" value="S_ID" style="shape=partialRectangle;connectable=0;fillColor=none;top=0;left=0;bottom=0;right=0;align=left;spacingLeft=6;fontStyle=5;overflow=hidden;whiteSpace=wrap;html=1;" vertex="1" parent="DzfKtU53nQsjvPbgfAun-247">
          <mxGeometry x="30" width="150" height="30" as="geometry">
            <mxRectangle width="150" height="30" as="alternateBounds" />
          </mxGeometry>
        </mxCell>
        <mxCell id="DzfKtU53nQsjvPbgfAun-250" value="" style="shape=tableRow;horizontal=0;startSize=0;swimlaneHead=0;swimlaneBody=0;fillColor=none;collapsible=0;dropTarget=0;points=[[0,0.5],[1,0.5]];portConstraint=eastwest;top=0;left=0;right=0;bottom=0;" vertex="1" parent="DzfKtU53nQsjvPbgfAun-246">
          <mxGeometry y="60" width="180" height="30" as="geometry" />
        </mxCell>
        <mxCell id="DzfKtU53nQsjvPbgfAun-251" value="" style="shape=partialRectangle;connectable=0;fillColor=none;top=0;left=0;bottom=0;right=0;editable=1;overflow=hidden;whiteSpace=wrap;html=1;" vertex="1" parent="DzfKtU53nQsjvPbgfAun-250">
          <mxGeometry width="30" height="30" as="geometry">
            <mxRectangle width="30" height="30" as="alternateBounds" />
          </mxGeometry>
        </mxCell>
        <mxCell id="DzfKtU53nQsjvPbgfAun-252" value="이름" style="shape=partialRectangle;connectable=0;fillColor=none;top=0;left=0;bottom=0;right=0;align=left;spacingLeft=6;overflow=hidden;whiteSpace=wrap;html=1;" vertex="1" parent="DzfKtU53nQsjvPbgfAun-250">
          <mxGeometry x="30" width="150" height="30" as="geometry">
            <mxRectangle width="150" height="30" as="alternateBounds" />
          </mxGeometry>
        </mxCell>
        <mxCell id="DzfKtU53nQsjvPbgfAun-253" value="" style="shape=tableRow;horizontal=0;startSize=0;swimlaneHead=0;swimlaneBody=0;fillColor=none;collapsible=0;dropTarget=0;points=[[0,0.5],[1,0.5]];portConstraint=eastwest;top=0;left=0;right=0;bottom=0;" vertex="1" parent="DzfKtU53nQsjvPbgfAun-246">
          <mxGeometry y="90" width="180" height="30" as="geometry" />
        </mxCell>
        <mxCell id="DzfKtU53nQsjvPbgfAun-254" value="" style="shape=partialRectangle;connectable=0;fillColor=none;top=0;left=0;bottom=0;right=0;editable=1;overflow=hidden;whiteSpace=wrap;html=1;" vertex="1" parent="DzfKtU53nQsjvPbgfAun-253">
          <mxGeometry width="30" height="30" as="geometry">
            <mxRectangle width="30" height="30" as="alternateBounds" />
          </mxGeometry>
        </mxCell>
        <mxCell id="DzfKtU53nQsjvPbgfAun-255" value="나이" style="shape=partialRectangle;connectable=0;fillColor=none;top=0;left=0;bottom=0;right=0;align=left;spacingLeft=6;overflow=hidden;whiteSpace=wrap;html=1;" vertex="1" parent="DzfKtU53nQsjvPbgfAun-253">
          <mxGeometry x="30" width="150" height="30" as="geometry">
            <mxRectangle width="150" height="30" as="alternateBounds" />
          </mxGeometry>
        </mxCell>
        <mxCell id="DzfKtU53nQsjvPbgfAun-263" value="" style="shape=tableRow;horizontal=0;startSize=0;swimlaneHead=0;swimlaneBody=0;fillColor=none;collapsible=0;dropTarget=0;points=[[0,0.5],[1,0.5]];portConstraint=eastwest;top=0;left=0;right=0;bottom=0;" vertex="1" parent="DzfKtU53nQsjvPbgfAun-246">
          <mxGeometry y="120" width="180" height="30" as="geometry" />
        </mxCell>
        <mxCell id="DzfKtU53nQsjvPbgfAun-264" value="" style="shape=partialRectangle;connectable=0;fillColor=none;top=0;left=0;bottom=0;right=0;editable=1;overflow=hidden;whiteSpace=wrap;html=1;" vertex="1" parent="DzfKtU53nQsjvPbgfAun-263">
          <mxGeometry width="30" height="30" as="geometry">
            <mxRectangle width="30" height="30" as="alternateBounds" />
          </mxGeometry>
        </mxCell>
        <mxCell id="DzfKtU53nQsjvPbgfAun-265" value="연락처" style="shape=partialRectangle;connectable=0;fillColor=none;top=0;left=0;bottom=0;right=0;align=left;spacingLeft=6;overflow=hidden;whiteSpace=wrap;html=1;" vertex="1" parent="DzfKtU53nQsjvPbgfAun-263">
          <mxGeometry x="30" width="150" height="30" as="geometry">
            <mxRectangle width="150" height="30" as="alternateBounds" />
          </mxGeometry>
        </mxCell>
        <mxCell id="DzfKtU53nQsjvPbgfAun-273" value="" style="endArrow=none;html=1;rounded=0;entryX=0.5;entryY=1;entryDx=0;entryDy=0;exitX=0.5;exitY=0;exitDx=0;exitDy=0;" edge="1" parent="1" source="DzfKtU53nQsjvPbgfAun-233" target="DzfKtU53nQsjvPbgfAun-9">
          <mxGeometry width="50" height="50" relative="1" as="geometry">
            <mxPoint x="242.5" y="1610" as="sourcePoint" />
            <mxPoint x="292.5" y="1560" as="targetPoint" />
          </mxGeometry>
        </mxCell>
        <mxCell id="DzfKtU53nQsjvPbgfAun-274" value="" style="endArrow=none;html=1;rounded=0;entryX=0.5;entryY=1;entryDx=0;entryDy=0;exitX=0.5;exitY=0;exitDx=0;exitDy=0;" edge="1" parent="1" source="DzfKtU53nQsjvPbgfAun-234" target="DzfKtU53nQsjvPbgfAun-9">
          <mxGeometry width="50" height="50" relative="1" as="geometry">
            <mxPoint x="250" y="1620" as="sourcePoint" />
            <mxPoint x="145" y="1585" as="targetPoint" />
          </mxGeometry>
        </mxCell>
      </root>
    </mxGraphModel>
  </diagram>
</mxfile>
